<?xml version="1.0" standalone="no"?>
<!DOCTYPE svg PUBLIC "-//W3C//DTD SVG 20010904//EN"
 "http://www.w3.org/TR/2001/REC-SVG-20010904/DTD/svg10.dtd">
<svg version="1.0" xmlns="http://www.w3.org/2000/svg"
 width="512.000000pt" height="512.000000pt" viewBox="0 0 512.000000 512.000000"
 preserveAspectRatio="xMidYMid meet">
<metadata>
Created by potrace 1.11, written by Peter Selinger 2001-2013
</metadata>
<g transform="translate(0.000000,512.000000) scale(0.100000,-0.100000)"
fill="#000000" stroke="none">
<path d="M2251 4762 c-30 -34 -48 -71 -78 -159 -62 -186 -124 -249 -205 -207
-18 9 -69 52 -113 95 -98 95 -123 115 -172 136 -76 32 -148 24 -263 -31 -105
-50 -121 -73 -115 -179 2 -42 6 -81 9 -86 3 -5 8 -44 12 -88 8 -105 2 -110
-97 -83 -307 84 -341 88 -402 53 -55 -33 -151 -183 -162 -256 -6 -34 26 -133
47 -148 10 -7 45 -99 43 -114 -6 -51 -19 -61 -93 -71 -93 -12 -135 -54 -156
-154 -15 -78 -11 -349 9 -485 3 -16 7 -48 10 -69 3 -22 7 -41 9 -43 2 -2 68
38 147 90 216 141 348 219 361 211 6 -4 8 -3 5 3 -6 10 210 121 338 173 44 18
94 38 110 45 34 14 152 53 181 60 10 2 44 11 74 20 72 20 197 43 268 51 32 3
68 7 82 10 52 10 318 12 375 3 69 -11 254 -14 305 -5 171 31 265 109 350 291
115 245 97 576 -38 708 -46 45 -86 53 -129 27 -37 -22 -56 -55 -83 -143 -43
-140 -158 -168 -274 -67 -46 41 -80 97 -111 189 -69 203 -175 300 -244 223z"/>
<path d="M2217 3434 c-1 -1 -38 -5 -82 -8 -82 -6 -120 -10 -190 -22 -22 -4
-47 -8 -55 -9 -96 -10 -380 -102 -521 -169 -30 -13 -61 -26 -69 -28 -8 -2 -17
-6 -20 -9 -3 -3 -49 -29 -103 -57 -118 -63 -371 -214 -375 -224 -2 -5 -8 -8
-12 -8 -5 0 -61 -34 -124 -75 l-115 -75 35 -98 c30 -83 163 -436 224 -597 11
-27 24 -62 29 -77 10 -25 13 -27 38 -17 28 11 159 13 203 4 14 -3 39 -8 55
-11 129 -23 333 -98 580 -212 194 -89 213 -95 340 -95 93 0 122 4 189 27 123
42 185 90 233 181 67 128 112 331 109 489 -3 140 -33 181 -129 173 -85 -7
-138 -79 -183 -247 -13 -50 -31 -104 -39 -121 -23 -44 -56 -79 -68 -72 -6 3
-7 1 -3 -5 10 -17 -74 -68 -136 -82 -70 -17 -237 -14 -268 5 -3 2 -17 6 -31 8
-131 25 -468 200 -565 295 -44 42 -58 90 -51 176 3 39 8 82 11 94 10 46 56
111 106 147 51 37 251 143 350 185 338 142 696 176 960 89 246 -81 428 -261
509 -504 11 -33 29 -112 41 -175 43 -222 96 -280 265 -285 131 -3 147 21 149
217 1 76 4 137 8 135 12 -4 286 -275 349 -344 48 -53 152 -180 227 -278 11
-14 134 -197 149 -221 118 -190 224 -390 309 -582 92 -209 102 -231 160 -387
41 -112 54 -136 98 -183 93 -100 292 -33 312 104 18 130 -172 598 -395 972
-33 57 -61 106 -61 108 0 15 -276 423 -300 444 -3 3 -28 34 -55 70 -28 36 -55
70 -61 75 -5 6 -35 39 -65 75 -98 117 -260 291 -366 393 -29 27 -50 54 -46 60
3 6 1 7 -6 3 -7 -4 -33 13 -64 42 -28 27 -74 69 -102 92 -27 23 -62 53 -77 66
-15 13 -72 58 -126 99 -353 268 -654 400 -997 440 -49 6 -175 12 -178 9z"/>
<path d="M1677 2746 c-115 -43 -179 -139 -172 -258 4 -67 24 -114 70 -161 124
-128 345 -88 415 75 71 165 -36 343 -213 354 -38 3 -76 -1 -100 -10z m0 -139
c21 -21 23 -65 4 -88 -39 -48 -122 -14 -115 48 6 54 72 78 111 40z"/>
<path d="M380 2634 c-201 -168 -358 -396 -376 -546 -5 -47 -3 -55 18 -75 27
-25 101 -40 213 -42 206 -5 374 -11 416 -16 l47 -5 -15 43 c-26 75 -147 402
-168 452 -6 17 -22 57 -34 90 -13 33 -30 77 -39 98 l-17 38 -45 -37z"/>
<path d="M940 1862 c-29 -4 -52 -21 -45 -32 3 -4 7 -28 10 -51 3 -24 15 -107
25 -184 11 -77 22 -156 25 -175 20 -141 24 -187 40 -395 4 -44 8 -91 10 -105
2 -14 6 -56 10 -95 7 -83 29 -180 50 -232 31 -74 120 -146 232 -190 58 -23 83
-27 178 -27 125 0 173 11 241 57 59 39 93 95 89 146 -2 20 -23 86 -48 146
-135 329 -100 355 168 122 128 -112 216 -162 317 -183 101 -21 247 -1 314 43
13 8 24 11 24 7 0 -5 4 -4 8 1 4 6 26 22 49 37 157 102 312 310 359 483 24 85
27 291 7 381 -23 101 -52 174 -70 174 -21 0 -64 -31 -181 -134 -112 -99 -171
-135 -273 -167 -73 -22 -214 -30 -312 -16 -117 16 -313 85 -517 180 -79 37
-288 127 -295 127 -2 0 -16 5 -32 12 -15 6 -32 12 -38 14 -5 1 -44 11 -85 23
-78 21 -217 39 -260 33z"/>
</g>
</svg>
