<?xml version="1.0" standalone="no"?>
<!DOCTYPE svg PUBLIC "-//W3C//DTD SVG 20010904//EN"
 "http://www.w3.org/TR/2001/REC-SVG-20010904/DTD/svg10.dtd">
<svg version="1.0" xmlns="http://www.w3.org/2000/svg"
 width="274.000000pt" height="274.000000pt" viewBox="0 0 274.000000 274.000000"
 preserveAspectRatio="xMidYMid meet">
<metadata>
Created by potrace 1.11, written by Peter Selinger 2001-2013
</metadata>
<g transform="translate(0.000000,274.000000) scale(0.100000,-0.100000)"
fill="#000000" stroke="none">
<path d="M44 2444 c13 -81 68 -233 125 -345 73 -146 122 -220 174 -264 45 -39
131 -75 178 -75 17 0 38 -4 47 -9 10 -5 89 -12 177 -15 276 -10 497 -25 575
-40 90 -17 202 -53 325 -105 57 -24 174 -86 211 -112 24 -16 46 -29 51 -29 4
0 24 -14 43 -30 19 -17 47 -36 63 -43 15 -6 30 -20 33 -29 3 -10 9 -18 13 -18
5 0 22 -12 38 -27 17 -16 45 -42 64 -59 76 -68 172 -182 228 -270 115 -181
226 -446 261 -619 6 -33 14 -69 17 -80 21 -68 30 197 13 378 -13 138 -61 295
-141 466 -27 57 -49 105 -49 108 0 8 -133 208 -149 224 -9 8 -27 30 -41 48
-53 69 -263 273 -315 307 -16 10 -32 21 -35 24 -15 16 -80 60 -88 60 -6 0 -12
4 -14 9 -3 10 -136 94 -213 135 -28 14 -57 30 -65 35 -8 5 -53 28 -100 50
-298 139 -562 213 -1145 321 -27 5 -75 13 -105 19 -30 6 -84 13 -118 17 l-64
7 6 -39z"/>
<path d="M455 1638 c4 -13 27 -61 52 -108 132 -247 302 -418 465 -465 108 -31
193 -23 358 32 64 22 94 26 205 27 72 0 144 -2 160 -6 138 -31 288 -100 361
-164 21 -19 40 -34 44 -34 11 0 158 -154 213 -224 30 -37 76 -104 101 -147 64
-107 70 -109 63 -18 -8 103 -41 239 -76 309 -40 79 -71 132 -95 161 -14 17
-26 34 -26 37 0 11 -130 142 -180 184 -143 116 -313 188 -545 232 -67 13 -269
26 -455 30 -118 3 -228 8 -245 11 -16 3 -39 7 -50 9 -114 20 -243 73 -310 126
-45 36 -48 37 -40 8z"/>
<path d="M990 1001 c0 -6 4 -11 8 -11 5 0 15 -13 23 -30 21 -43 153 -185 214
-230 77 -57 183 -109 256 -126 35 -8 156 -19 269 -25 113 -5 225 -13 250 -18
72 -13 216 -60 242 -79 45 -33 68 -43 68 -30 0 28 -114 204 -153 237 -10 7
-17 18 -17 23 0 5 -13 21 -28 36 -51 48 -122 111 -122 107 0 -2 -23 11 -51 30
-83 55 -195 86 -308 86 -53 0 -107 -2 -121 -6 -203 -46 -396 -36 -496 26 -19
11 -34 16 -34 10z"/>
</g>
</svg>
